<svg xmlns="http://www.w3.org/2000/svg" x="0px" y="0px"
     width="50" height="50"
     viewBox="0 0 64 64"
     style="enable-background:new 0 0 64 64;;fill:#000000;"><linearGradient id="SVGID_1__69428" gradientUnits="userSpaceOnUse" x1="35.9098" y1="17.5" x2="35.9098" y2="43.75" spreadMethod="reflect">	<stop offset="0" style="stop-color:#6DC7FF"></stop>	<stop offset="1" style="stop-color:#E6ABFF"></stop></linearGradient><path style="fill:url(#SVGID_1__69428);" d="M41.82,31.95l-3.15,1.73l-8.5-14.31c-0.35-0.57-0.14-1.31,0.44-1.64l1-0.57  c0.59-0.33,1.35-0.14,1.69,0.44L41.82,31.95z"></path><linearGradient id="SVGID_2__69428" gradientUnits="userSpaceOnUse" x1="41.465" y1="17.5" x2="41.465" y2="43.75" spreadMethod="reflect">	<stop offset="0" style="stop-color:#6DC7FF"></stop>	<stop offset="1" style="stop-color:#E6ABFF"></stop></linearGradient><polygon style="fill:url(#SVGID_2__69428);" points="43.75,35.19 40.59,36.92 39.18,34.54 42.34,32.81 "></polygon><linearGradient id="SVGID_3__69428" gradientUnits="userSpaceOnUse" x1="19.3556" y1="17.5" x2="19.3556" y2="43.75" spreadMethod="reflect">	<stop offset="0" style="stop-color:#6DC7FF"></stop>	<stop offset="1" style="stop-color:#E6ABFF"></stop></linearGradient><path style="fill:url(#SVGID_3__69428);" d="M18.55,37.98l3.16,1.82l-0.01,0.02l-4.29,4.11c-0.08,0.08-0.2,0.09-0.29,0.04  c-0.09-0.06-0.14-0.16-0.11-0.27l1.53-5.7L18.55,37.98z"></path><linearGradient id="SVGID_4__69428" gradientUnits="userSpaceOnUse" x1="24.24" y1="17.5" x2="24.24" y2="43.75" spreadMethod="reflect">	<stop offset="0" style="stop-color:#6DC7FF"></stop>	<stop offset="1" style="stop-color:#E6ABFF"></stop></linearGradient><polygon style="fill:url(#SVGID_4__69428);" points="26.26,24.98 29.42,26.8 22.22,38.95 19.06,37.12 "></polygon><linearGradient id="SVGID_5__69428" gradientUnits="userSpaceOnUse" x1="28.8843" y1="17.5" x2="28.8843" y2="43.75" spreadMethod="reflect">	<stop offset="0" style="stop-color:#6DC7FF"></stop>	<stop offset="1" style="stop-color:#E6ABFF"></stop></linearGradient><path style="fill:url(#SVGID_5__69428);" d="M30.83,24.42l-0.9,1.52l-3.16-1.83l0.9-1.52c0.34-0.57,1.08-0.76,1.66-0.43l1.07,0.62  C30.98,23.12,31.17,23.85,30.83,24.42z"></path><linearGradient id="SVGID_6__69428" gradientUnits="userSpaceOnUse" x1="43.8395" y1="17.5" x2="43.8395" y2="43.75" spreadMethod="reflect">	<stop offset="0" style="stop-color:#6DC7FF"></stop>	<stop offset="1" style="stop-color:#E6ABFF"></stop></linearGradient><path style="fill:url(#SVGID_6__69428);" d="M43.426,36.553c-0.511,0.287-1.273,0.732-1.72,0.997c-0.841,0.498-0.192,1.953-0.001,2.268  c1.088,1.803,2.211,1.55,3.059,2.828c0.464,0.699,0.332,1.008,0.479,1.239c0.055,0.087,0.241,0.169,0.313,0.07  c1.306-1.786,0.921-4.86-0.025-6.228C45.089,37.088,44.29,36.069,43.426,36.553"></path><linearGradient id="SVGID_7__69428" gradientUnits="userSpaceOnUse" x1="44.915" y1="17.5" x2="44.915" y2="43.75" spreadMethod="reflect">	<stop offset="0" style="stop-color:#6DC7FF"></stop>	<stop offset="1" style="stop-color:#E6ABFF"></stop></linearGradient><polygon style="fill:url(#SVGID_7__69428);" points="48,30 48,34 44.21,34 41.83,30 "></polygon><linearGradient id="SVGID_8__69428" gradientUnits="userSpaceOnUse" x1="32" y1="17.5" x2="32" y2="43.75" spreadMethod="reflect">	<stop offset="0" style="stop-color:#6DC7FF"></stop>	<stop offset="1" style="stop-color:#E6ABFF"></stop></linearGradient><polygon style="fill:url(#SVGID_8__69428);" points="37.69,34 26.31,34 28.68,30 35.32,30 "></polygon><linearGradient id="SVGID_9__69428" gradientUnits="userSpaceOnUse" x1="19.06" y1="17.5" x2="19.06" y2="43.75" spreadMethod="reflect">	<stop offset="0" style="stop-color:#6DC7FF"></stop>	<stop offset="1" style="stop-color:#E6ABFF"></stop></linearGradient><polygon style="fill:url(#SVGID_9__69428);" points="22.12,30 19.75,34 16,34 16,30 "></polygon><linearGradient id="SVGID_10__69428" gradientUnits="userSpaceOnUse" x1="32" y1="6" x2="32" y2="58" spreadMethod="reflect">	<stop offset="0" style="stop-color:#1A6DFF"></stop>	<stop offset="1" style="stop-color:#C822FF"></stop></linearGradient><circle style="fill:none;stroke:url(#SVGID_10__69428);stroke-width:2;stroke-miterlimit:10;" cx="32" cy="32" r="25"></circle></svg>